<svg width="13" height="13" viewBox="0 0 13 13" fill="none" xmlns="http://www.w3.org/2000/svg">
<path d="M6.05184 0.0268731C2.73911 0.0120313 0.0416793 2.6855 0.0268379 5.99813C0.0119957 9.31094 2.68537 12.0083 5.99809 12.0231C9.31081 12.038 12.0082 9.36469 12.0231 6.05187C12.0379 2.73924 9.36456 0.0417149 6.05184 0.0268731ZM6.0384 3.02594C6.45251 3.02779 6.78666 3.365 6.78481 3.77906C6.78295 4.19331 6.44579 4.52732 6.03168 4.52547C5.61758 4.52361 5.28342 4.18659 5.28528 3.77234C5.28713 3.35828 5.6243 3.02408 6.0384 3.02594ZM7.13618 9.0291L4.88688 9.01902C4.67985 9.0181 4.51275 8.84968 4.51368 8.64246C4.5146 8.43543 4.68321 8.26833 4.89024 8.26926L5.26512 8.27094L5.2752 6.02164L4.90032 6.01996C4.69329 6.01903 4.52618 5.85061 4.52711 5.6434C4.52804 5.43637 4.69665 5.26927 4.90367 5.27019L6.40321 5.27691C6.61023 5.27784 6.77734 5.44645 6.77641 5.65348L6.76465 8.27766L7.13954 8.27934C7.34656 8.28026 7.51367 8.44887 7.51274 8.6559C7.51181 8.86311 7.3432 9.03003 7.13618 9.0291Z" fill="#475E81"/>
</svg>
